<svg width="200" height="200" viewBox="0 0 200 200" fill="none" xmlns="http://www.w3.org/2000/svg">
<g clip-path="url(#clip0_120_234)">
<path d="M56 131.782C56 137.978 61.0803 143 67.3468 143H132.653C138.92 143 144 137.977 144 131.782V67.2182C144 61.0219 138.92 56 132.653 56H67.3472C61.0796 56 56 61.0226 56 67.2179V131.782V131.782Z" fill="#563D7C"/>
<path d="M92.4919 94.4832V82.1629H103.461C104.506 82.1629 105.514 82.2489 106.484 82.4212C107.454 82.5931 108.312 82.9003 109.058 83.3431C109.804 83.786 110.401 84.4007 110.849 85.1875C111.297 85.9746 111.521 86.9829 111.521 88.2121C111.521 90.4255 110.849 92.0241 109.506 93.0076C108.163 93.9915 106.446 94.4832 104.357 94.4832H92.4919V94.4832ZM80.7759 73.1621V125.838H106.596C108.984 125.838 111.309 125.543 113.573 124.953C115.837 124.362 117.851 123.453 119.618 122.223C121.383 120.993 122.789 119.407 123.834 117.464C124.879 115.522 125.401 113.222 125.401 110.566C125.401 107.271 124.592 104.455 122.976 102.119C121.359 99.7828 118.908 98.1474 115.625 97.2129C118.013 96.0819 119.817 94.6307 121.036 92.8601C122.254 91.0895 122.864 88.8765 122.864 86.2203C122.864 83.7612 122.453 81.6956 121.632 80.0232C120.811 78.3512 119.655 77.0108 118.162 76.0025C116.67 74.9942 114.879 74.2686 112.789 73.8262C110.7 73.3833 108.387 73.1621 105.849 73.1621H80.7759V73.1621ZM92.4919 116.837V102.377H105.252C107.789 102.377 109.829 102.955 111.372 104.111C112.914 105.267 113.685 107.197 113.685 109.902C113.685 111.28 113.449 112.411 112.976 113.296C112.503 114.181 111.869 114.882 111.073 115.399C110.277 115.915 109.357 116.284 108.312 116.505C107.267 116.726 106.173 116.837 105.028 116.837H92.4919V116.837Z" fill="white"/>
</g>
<defs>
<clipPath id="clip0_120_234">
<rect width="88" height="87" fill="white" transform="translate(56 56)"/>
</clipPath>
</defs>
</svg>
