<svg width="200" height="200" viewBox="0 0 200 200" fill="none" xmlns="http://www.w3.org/2000/svg">
<path d="M62.4225 141.716L54 48H146.58L138.146 141.701L100.234 152.125L62.4225 141.716Z" fill="#1572B6"/>
<path d="M100.29 144.159L130.928 135.736L138.135 55.6641H100.29V144.159Z" fill="#33A9DC"/>
<path d="M100.29 89.6165H115.628L116.685 77.8467H100.29V66.3521H129.353L129.075 69.4349L126.229 101.111H100.29V89.6165V89.6165Z" fill="white"/>
<path d="M100.361 119.467L100.309 119.482L87.4012 116.023L86.5762 106.856H74.9399L76.5637 124.904L100.305 131.441L100.361 131.426V119.467V119.467Z" fill="#EBEBEB"/>
<path d="M114.641 100.624L113.246 116.016L100.32 119.474V131.434L124.08 124.904L124.256 122.963L126.27 100.624H114.641V100.624Z" fill="white"/>
<path d="M100.331 66.3521V77.8467H72.3337L72.1012 75.2622L71.5724 69.4349L71.2949 66.3521H100.331V66.3521ZM100.29 89.6165V101.111H87.5437L87.3112 98.5267L86.7862 92.6994L86.5087 89.6165H100.29V89.6165Z" fill="#EBEBEB"/>
</svg>
