<svg width="200" height="200" viewBox="0 0 200 200" fill="none" xmlns="http://www.w3.org/2000/svg">
<path d="M151.02 95.8217L105.176 49.9801C102.537 47.34 98.2552 47.34 95.6134 49.9801L86.0937 59.4999L98.1699 71.5761C100.976 70.6278 104.194 71.264 106.431 73.501C108.679 75.7523 109.311 78.9979 108.339 81.8132L119.978 93.4518C122.793 92.4818 126.042 93.1093 128.291 95.3619C131.434 98.5037 131.434 103.596 128.291 106.74C125.147 109.884 120.055 109.884 116.91 106.74C114.545 104.373 113.961 100.901 115.158 97.9885L104.305 87.135L104.303 115.697C105.09 116.086 105.809 116.6 106.431 117.219C109.574 120.36 109.574 125.453 106.431 128.599C103.287 131.742 98.1929 131.742 95.0535 128.599C91.9105 125.453 91.9105 120.361 95.0535 117.219C95.8067 116.466 96.7019 115.869 97.6871 115.463V86.635C96.7004 86.2322 95.8048 85.635 95.0535 84.8791C92.6722 82.501 92.0996 79.0069 93.3198 76.0829L81.4154 64.1773L49.9811 95.6096C47.3396 98.2522 47.3396 102.535 49.9811 105.175L95.8259 151.018C98.4652 153.658 102.746 153.658 105.389 151.018L151.019 105.388C153.66 102.747 153.66 98.4618 151.019 95.8217" fill="#DE4C36"/>
</svg>
