<svg width="200" height="200" viewBox="0 0 200 200" fill="none" xmlns="http://www.w3.org/2000/svg">
<path fill-rule="evenodd" clip-rule="evenodd" d="M100 57C75.69 57 56 76.69 56 101C56 120.47 68.595 136.915 86.085 142.745C88.285 143.13 89.11 141.81 89.11 140.655C89.11 139.61 89.055 136.145 89.055 132.46C78 134.495 75.14 129.765 74.26 127.29C73.765 126.025 71.62 122.12 69.75 121.075C68.21 120.25 66.01 118.215 69.695 118.16C73.16 118.105 75.635 121.35 76.46 122.67C80.42 129.325 86.745 127.455 89.275 126.3C89.66 123.44 90.815 121.515 92.08 120.415C82.29 119.315 72.06 115.52 72.06 98.69C72.06 93.905 73.765 89.945 76.57 86.865C76.13 85.765 74.59 81.255 77.01 75.205C77.01 75.205 80.695 74.05 89.11 79.715C92.63 78.725 96.37 78.23 100.11 78.23C103.85 78.23 107.59 78.725 111.11 79.715C119.525 73.995 123.21 75.205 123.21 75.205C125.63 81.255 124.09 85.765 123.65 86.865C126.455 89.945 128.16 93.85 128.16 98.69C128.16 115.575 117.875 119.315 108.085 120.415C109.68 121.79 111.055 124.43 111.055 128.555C111.055 134.44 111 139.17 111 140.655C111 141.81 111.825 143.185 114.025 142.745C122.76 139.796 130.35 134.182 135.727 126.694C141.104 119.205 143.997 110.219 144 101C144 76.69 124.31 57 100 57Z" fill="black"/>
</svg>
