<svg width="200" height="200" viewBox="0 0 200 200" fill="none" xmlns="http://www.w3.org/2000/svg">
<path d="M107.163 159.618C105.599 159.344 103.979 158.601 103.061 157.78C102.437 157.126 102.081 156.261 102.063 155.358C102.063 154.439 102.532 153.149 103.274 151.863C103.724 151.139 104.077 150.359 104.328 149.538C104.486 148.971 104.816 148.053 105.071 147.468L105.521 146.395L105.637 139.229C105.697 135.265 105.813 131.594 105.911 131.024C106.166 129.381 106.593 127.78 107.159 126.22L107.591 125.185L106.964 124.814C106.398 124.461 105.929 123.974 104.073 121.765C101.789 119.069 98.7818 117.584 94.5218 117.078C93.1343 116.943 91.7281 116.841 90.3218 116.785C84.0706 116.493 80.4968 115.184 77.2756 112.019C74.8718 109.656 73.6231 106.9 73.1168 102.839C72.4343 97.3488 71.6731 94.5363 70.2668 92.2525C69.9202 91.6885 69.5209 91.1586 69.0743 90.67L68.5081 90.1038L67.2593 90.9063C66.5768 91.3563 65.6168 91.9225 65.1481 92.1775C63.5843 93.0363 62.0993 93.9925 60.6743 95.0275C57.1793 97.5663 53.3693 100.75 51.2806 102.839C50.3431 103.776 49.8556 104.185 49.6381 104.148C48.2131 103.934 49.3043 97.7613 51.6293 93.1113C54.5993 87.115 59.5981 81.5875 65.3806 77.8562C70.1281 74.7887 77.8043 70.57 81.3556 69.085C87.6631 66.4488 95.8268 63.595 101.414 62.0725C102.588 61.7388 103.308 61.4463 103.796 61.1163C104.891 60.355 105.963 59.9838 107.193 59.965C108.228 59.9463 108.326 59.9275 109.323 59.26C110.497 58.4988 110.846 58.4575 112.019 58.87L112.781 59.1438L113.718 58.4988L114.656 57.8725L116.002 57.8913C117.037 57.91 117.506 57.8725 117.956 57.6775C118.522 57.4225 118.541 57.385 118.698 56.4475C119.051 54.415 119.088 53.3988 118.874 52.1688C118.601 50.5488 118.563 44.26 118.837 43.0263C119.129 41.6988 119.324 41.425 120.322 40.9375C121.807 40.2137 122.921 40 125.478 40C128.602 40 130.184 40.4313 131.358 41.5638C132.412 42.58 132.588 44.9613 132.041 50.5488C131.707 53.77 131.669 54.67 131.767 56.7775C131.804 58.1238 131.902 59.395 131.943 59.5713C132.022 59.905 132.101 59.9238 133.233 59.9425C134.347 59.9613 134.542 60.0213 135.596 60.5688C136.612 61.0975 137.373 61.7425 137.531 62.2113C137.549 62.3088 137.726 62.3088 138.037 62.2113C138.641 62.035 139.169 62.23 139.601 62.7588C139.856 63.0925 140.009 63.1488 140.598 63.1488C141.401 63.1488 141.693 63.3438 142.357 64.3225C142.667 64.7618 143.093 65.1069 143.587 65.32C144.682 65.8675 146.167 67.39 146.733 68.6013C147.611 70.3975 147.787 72.4862 147.239 74.3612C147.044 75.0662 147.044 75.085 147.453 75.7675C148.312 77.2337 148.627 79.03 148.274 80.5525L148.079 81.4525L148.664 82.0375C151.574 84.9475 151.143 89.695 147.592 93.9325C147.195 94.4165 146.86 94.9481 146.594 95.515C145.912 97.33 145.128 98.6013 144.116 99.655L143.081 100.709H142.027C140.973 100.709 139.488 100.356 138.588 99.8875C138.217 99.6925 138.198 99.6925 138.277 99.925C138.513 100.784 139.098 104.279 139.293 106.214C139.604 109.184 139.507 113.5 139.098 115.356C138.799 116.731 138.299 118.054 137.613 119.283C137.223 119.909 137.204 120.044 137.279 120.805C137.396 121.878 137.144 123.678 136.713 124.866C136.184 126.254 135.989 126.899 135.873 127.6C135.776 128.204 135.776 128.204 136.207 128.204C136.773 128.204 137.084 128.538 137.084 129.201C137.084 129.494 136.829 131.076 136.518 132.696C135.659 137.249 135.599 137.755 135.599 142.169C135.581 146.721 135.581 146.68 136.616 147.363L138.941 148.866C140.941 150.194 143.083 151.294 145.327 152.148C148.589 153.438 149.039 153.768 149.039 154.863C149.039 155.35 148.942 155.526 148.533 155.916C147.284 157.128 144.821 157.401 139.859 156.873C137.281 156.631 134.694 156.507 132.104 156.501C125.268 156.404 124.271 156.168 123.374 154.469C122.868 153.494 122.966 152.223 123.667 150.134C123.978 149.215 124.252 148.278 124.488 147.321C124.957 145.056 124.646 142.36 123.551 139.315L122.613 136.716C121.694 134.08 121.188 129.254 121.736 128.163C121.833 127.949 122.009 127.908 122.478 127.926L123.063 127.986L123.551 126.97C123.922 126.168 124.331 125.643 125.444 124.529L126.869 123.104L126.791 122.185C126.731 121.308 125.579 117.047 125.422 117.066C125.362 117.066 125.051 117.498 124.698 118.041C123.839 119.331 121.946 121.323 120.869 122.046C120.401 122.358 120.011 122.729 120.011 122.849C119.992 123.378 119.542 124.413 118.994 125.133C118.466 125.838 118.428 125.954 118.507 126.576C118.642 127.495 118.349 130.443 118.001 131.988C117.684 133.135 117.252 134.247 116.711 135.306C115.364 138.1 114.348 140.598 114.093 141.753C113.909 142.865 113.791 143.986 113.741 145.113C113.681 146.44 113.546 147.73 113.448 148.004C113.313 148.375 113.313 148.668 113.429 149.234C113.527 149.643 113.587 150.561 113.564 151.285C113.546 152.283 113.624 152.928 113.917 154.098C114.423 156.089 114.521 157.341 114.288 158.084C114.131 158.553 113.977 158.729 113.448 158.984C112.274 159.588 108.956 159.921 107.159 159.61L107.163 159.618ZM111.907 158.016C112.589 157.821 113.178 157.236 113.178 156.708C113.178 156.471 112.983 155.789 112.747 155.185C112.278 154.034 111.476 150.985 111.476 150.479C111.476 150.224 111.494 150.205 111.884 150.419L112.316 150.655V150.108C112.253 149.603 112.141 149.105 111.982 148.623C111.611 147.509 111.573 147.49 109.207 147.351L107.606 147.273L107.021 147.839C106.699 148.17 106.417 148.537 106.181 148.934C105.926 149.44 105.828 150.205 105.986 150.378C106.023 150.438 106.417 150.378 106.844 150.28C107.098 150.204 107.36 150.159 107.624 150.145C107.624 150.164 107.193 150.516 106.649 150.888C104.306 152.646 103.484 153.719 103.484 155.088C103.484 156.513 104.831 157.626 106.942 157.96C108.386 158.174 111.198 158.234 111.903 158.02L111.907 158.016ZM143.684 155.691C144.269 154.986 144.191 154.266 143.448 153.445C143.017 153.014 142.529 152.643 141.982 152.35C141.434 152.058 140.887 151.724 140.339 151.375C139.349 150.733 138.332 150.134 137.291 149.579C136.391 149.091 135.513 148.581 134.654 148.038L134.302 147.764V142.394C134.302 137.103 134.283 137.024 134.009 137.103C132.641 137.474 130.376 137.65 127.507 137.59L124.402 137.553L124.852 138.648C125.692 140.718 126.123 143.493 126.123 146.676C126.123 147.869 126.044 148.296 125.752 149.136C125.594 149.545 125.459 149.958 125.321 150.366C125.261 150.543 125.478 150.678 126.277 150.914C126.862 151.09 127.721 151.266 128.212 151.323L129.112 151.42L129.014 152.32C128.917 153.336 129.033 154.409 129.288 154.743C129.446 154.938 130.031 155.016 132.746 155.133C134.797 155.23 137.024 155.444 138.779 155.699C140.302 155.935 141.944 156.13 142.432 156.13C143.253 156.149 143.332 156.111 143.681 155.699L143.684 155.691ZM112.417 146.553C112.496 146.493 112.612 145.439 112.653 144.19C112.811 140.695 112.946 140.185 114.704 136.24C116.148 133.019 116.913 130.011 116.853 127.881L116.816 126.61L116.268 127.139C115.136 128.271 115.916 126.494 117.266 124.911C118.282 123.7 118.634 123.036 118.788 121.964C118.867 121.533 119.024 121.319 119.688 120.813C122.172 118.936 124.085 116.407 125.216 113.508C125.489 112.803 126.191 110.403 126.779 108.175C127.874 104.054 128.459 102.276 128.988 101.515C129.183 101.223 129.262 101.163 129.224 101.358C128.941 102.405 128.719 103.468 128.561 104.541C128.403 105.498 128.111 107.373 127.916 108.681C127.544 111.359 127.154 113.076 126.626 114.404L126.273 115.304L127.211 117.726C128.186 120.205 128.636 122.005 128.714 123.741L128.774 124.716L128.013 124.874C127.008 125.052 126.112 125.612 125.512 126.438C124.848 127.394 124.477 128.178 124.653 128.35C124.732 128.429 125.688 128.605 126.783 128.74C128.482 128.935 129.127 128.935 131.373 128.8C132.348 128.763 133.308 128.665 134.264 128.526C134.478 128.448 134.696 128.02 135.044 126.906C135.847 124.349 136.001 123.449 135.903 121.653L135.824 120.07L136.233 119.541C137.189 118.33 137.932 116.144 138.243 113.583C138.614 110.459 137.932 103.915 136.661 98.29C136.057 95.6125 135.802 94.0113 135.802 92.8413V91.8063L134.846 91.9038C131.407 92.275 127.248 92.1775 124.709 91.6488C123.322 91.375 119.827 90.34 119.066 90.0063L118.462 89.7325L118.383 90.415C118.323 90.7863 118.267 91.1575 118.188 91.5475C118.072 91.9563 118.109 92.0538 118.833 92.7588C119.733 93.6775 120.007 94.1463 120.007 94.7688C120.007 95.1588 119.793 95.4738 118.698 96.6063C117.913 97.444 117.042 98.1969 116.099 98.8525L114.828 99.7113L114.281 101.605C112.327 108.539 111.956 114.846 113.246 119.358L113.557 120.49L112.931 121.27C110.587 124.218 109.199 126.464 108.986 127.716C108.861 128.333 108.717 128.946 108.554 129.554C108.048 131.489 107.654 134.32 107.482 137.388C107.362 139.955 107.193 142.521 106.976 145.083L106.878 145.844L107.853 146.136C108.401 146.313 109.222 146.508 109.691 146.586C110.568 146.721 112.192 146.684 112.443 146.549L112.417 146.553ZM131.381 135.809C132.903 135.711 134.291 135.475 134.564 135.243C134.681 135.164 134.819 134.755 134.857 134.343L134.954 133.6L133.743 133.874C132.787 134.069 131.831 134.185 130.871 134.264C128.564 134.361 126.243 134.301 123.956 134.069C123.194 133.953 123.194 133.953 123.427 134.946C123.622 135.689 123.663 135.726 125.654 135.865C126.982 135.981 128.838 135.963 131.377 135.805L131.381 135.809ZM130.109 132.411C132.101 132.235 134.583 131.808 135.071 131.553C135.228 131.474 135.363 131.181 135.423 130.848L135.599 129.813L135.697 129.325L135.209 129.423C133.042 129.873 131.399 130.008 128.118 130.008C124.916 130.008 124.544 129.989 123.704 129.696C123.382 129.56 123.038 129.48 122.688 129.46C122.553 129.539 122.531 130.653 122.651 131.433C122.729 131.901 122.808 131.98 123.277 132.115C124.762 132.524 127.263 132.621 130.113 132.389L130.109 132.411ZM93.8618 114.794C98.8606 113.35 105.404 109.109 110.756 103.799C112.496 102.059 112.709 101.826 112.942 101.046L113.253 100.049C113.291 99.97 112.979 99.835 112.571 99.7375C111.498 99.4825 110.677 98.86 110.677 98.2938C110.677 97.96 110.482 97.63 109.916 97.0225C108.997 95.9875 108.764 95.5375 108.667 94.5438L108.588 93.7413L107.493 92.9613C106.867 92.5113 104.681 91.3 102.356 90.13C100.585 89.2664 98.8525 88.328 97.1618 87.3175C95.2081 86.0088 93.8993 84.445 93.1568 82.5925C93.0218 82.2213 92.8456 81.91 92.7856 81.91C92.6281 81.91 88.2331 86.1475 86.3581 88.1388C81.7306 93.0213 78.5468 97.2588 76.5331 101.185C76.0268 102.16 75.4793 103.315 75.3218 103.743L75.0293 104.523L75.3818 105.831C75.5956 106.536 76.0456 107.688 76.3981 108.37C77.6281 110.793 79.0943 112.255 81.5168 113.448C84.1156 114.738 86.4181 115.188 90.2656 115.128C92.3356 115.109 92.9431 115.049 93.8581 114.775L93.8618 114.794ZM54.4081 97.6638C57.6893 94.7538 62.2193 91.57 67.7693 88.27C71.4031 86.1025 85.4468 79.0713 91.9118 76.1988C93.0856 75.67 94.1393 75.1825 94.2556 75.1263C94.3718 75.0475 94.7056 74.2075 95.0168 73.27C96.3856 68.935 97.0681 68.0763 99.5468 67.51C99.8581 67.4313 99.9368 67.3338 99.9368 67.0225C99.9368 66.4563 100.327 65.1475 100.661 64.5625C100.916 64.1125 100.916 64.0938 100.698 64.1538C100.563 64.1913 99.7418 64.4275 98.8831 64.6825C86.9693 68.1213 76.5593 72.6888 67.5743 78.3925C57.9856 84.4863 52.4581 91.7913 50.8568 100.54L50.7406 101.185L51.9143 100.034C52.5406 99.3887 53.6731 98.335 54.4156 97.69L54.4081 97.6638ZM142.788 99.325C143.744 98.8375 145.229 96.5913 145.777 94.8138C145.934 94.1875 146.246 93.6025 146.696 93.115C148.139 91.5138 149.332 88.6038 149.351 86.6125C149.351 83.5075 147.592 82.315 145.034 83.6425C144.701 83.8 144.431 83.9163 144.389 83.8788C144.254 83.7438 144.974 83.0388 145.856 82.4913C147.007 81.73 147.224 81.28 147.224 79.66C147.241 78.3506 146.852 77.068 146.111 75.9887C145.758 75.46 145.623 75.1112 145.679 74.8937L146.032 73.585C146.519 71.845 146.343 69.8538 145.582 68.5863C144.449 66.6738 143.062 65.7363 141.127 65.5788L139.994 65.5L140.658 66.2425C142.631 68.3725 143.587 71.0463 143.197 73.3338C143.002 74.5075 142.826 74.74 141.693 75.19L141.029 75.4638L141.108 76.3638C141.243 77.83 140.992 78.9025 140.054 80.875C139.586 81.8725 139.233 82.7688 139.274 82.8663C139.391 83.2 140.681 83.8225 141.697 84.0775L142.694 84.3138L142.068 84.5275C141.247 84.7825 141.071 85.1538 141.071 86.5C141.071 87.73 141.247 88.24 142.143 89.5863C142.552 90.1713 142.826 90.7788 142.867 91.1275C142.946 91.675 142.927 91.7125 142.477 91.87C141.967 92.0132 141.442 92.0987 140.913 92.125C139.076 92.2413 138.941 92.3013 138.119 93.0813C137.377 93.7863 137.358 93.8238 137.358 94.6038C137.358 95.6763 137.767 97.8475 138.022 98.14C138.356 98.4925 140.208 99.4113 140.932 99.5463C141.556 99.703 142.216 99.627 142.788 99.3325V99.325ZM115.736 97.8625C116.928 96.925 117.866 95.9875 118.391 95.185C118.724 94.6975 118.743 94.6 118.586 94.1875C118.312 93.5613 116.516 91.9413 115.518 91.4538C114.853 91.156 114.15 90.9527 113.429 90.85L112.199 90.6925L111.438 89.7363C109.856 87.7825 108.978 86.26 107.726 83.3088C106.631 80.8075 105.674 79.345 104.152 77.8975C103.526 77.3125 103.079 76.825 103.117 76.825C103.196 76.825 103.938 77.1963 104.797 77.6463C106.222 78.4075 106.398 78.4675 107.043 78.37C109.368 78.0963 111.419 75.4225 112.162 71.6725C112.376 70.6187 112.807 69.5425 113.257 68.8975C113.276 68.8788 114.176 69.4637 115.229 70.225C117.907 72.1188 118.492 72.4112 120.014 72.4712C121.012 72.5087 121.578 72.4337 123.374 72.0025C127.203 71.065 131.343 70.6937 133.863 71.0275C135.288 71.2225 137.339 71.8488 138.862 72.5688C140.366 73.2738 140.658 73.3113 141.146 72.88C141.554 72.5275 141.554 72.4713 141.554 71.1625C141.536 69.2275 140.831 67.1388 139.758 65.89C139.211 65.245 137.669 64.1913 136.143 63.3888C135.601 63.101 135.061 62.8085 134.523 62.5113C133.799 62.08 132.982 62.14 130.754 62.725C128.174 63.3888 127.492 63.3888 124.544 62.6275C122.043 62.0013 121.889 61.9825 119.426 62.3725C118.117 62.5675 114.836 62.4513 113.741 62.1588C113.193 62.0013 112.646 61.8475 112.121 61.6525C111.164 61.2813 109.503 61.2213 107.999 61.495C105.011 62.0238 102.746 63.6438 101.924 65.8488C101.493 66.9625 101.553 67.4913 102.119 67.84C103.019 68.4063 104.208 69.9513 104.208 70.555C104.208 70.5925 103.916 70.3413 103.582 69.9888C102.742 69.1113 101.981 68.7175 101.081 68.7175C100.498 68.7337 99.932 68.9122 99.4457 69.2328C98.9594 69.5535 98.5723 70.0036 98.3281 70.5325C98.0653 71.2225 97.8436 71.9275 97.6643 72.6438C97.1168 74.635 96.6293 75.6925 95.5943 77.0988C94.6756 78.37 94.5406 78.9363 94.8706 80.3613C95.6918 83.9538 97.1168 85.4013 103.072 88.78C106.196 90.5575 107.797 91.555 108.971 92.4325C109.871 93.0963 109.889 93.1375 109.811 93.6438C109.634 94.8175 110.377 96.085 111.843 97.12C112.214 97.375 112.447 97.6488 112.447 97.8438C112.447 98.1963 113.444 98.6838 114.164 98.6838C114.573 98.6838 114.888 98.5075 115.728 97.8625H115.736ZM139.818 91.2775C142.083 91.3563 142.199 91.18 140.992 89.7738C139.721 88.3075 139.372 87.1188 139.841 85.81L140.036 85.3038L139.233 84.9138C138.959 84.7788 138.686 84.64 138.412 84.5425C138.277 85.0713 138.138 85.5775 138.022 86.1063C137.729 87.2988 137.377 90.385 137.358 91.6938C137.358 91.81 137.553 91.7725 137.887 91.5588C138.356 91.285 138.592 91.2475 139.822 91.285L139.818 91.2775ZM132.221 91.1613C133.589 91.0825 134.996 90.985 135.367 90.925L136.049 90.8275L136.128 88.5813C136.244 85.3788 136.713 83.485 138.101 80.455C139.076 78.3062 139.507 76.4312 139.293 75.025C139.214 74.4212 139.177 74.38 138.356 74.0275C136.852 73.4304 135.286 73.004 133.687 72.7563C132.146 72.5425 127.612 72.6587 125.913 72.9925C125.208 73.1087 123.922 73.3825 123.063 73.5963C120.933 74.0838 119.801 74.0275 118.181 73.3225C116.579 72.6175 115.563 71.9763 114.607 71.0763C113.846 70.3713 113.767 70.3337 113.572 70.57C113.414 70.7462 113.336 71.275 113.279 72.4075C113.219 74.1475 112.946 75.0625 112.184 76.2925C112.015 76.5456 111.871 76.8143 111.753 77.095C111.753 77.155 112.338 77.8375 113.062 78.58C115.563 81.1787 116.793 81.8425 118.766 81.7038C119.411 81.6438 119.861 81.6663 119.861 81.7413C119.861 81.8988 118.589 82.8925 118.064 83.1663C117.809 83.3013 117.753 83.44 117.791 83.7325L118.102 85.7838C118.278 86.9575 118.413 87.5013 118.589 87.6588C119.058 88.0488 121.481 89.3013 123.003 89.9238C124.994 90.7263 126.089 91.0188 127.612 91.1538C129.487 91.3113 129.524 91.3113 132.221 91.1538V91.1613ZM116.069 89.0125C116.107 88.9525 115.972 87.82 115.717 86.5113C115.406 84.7338 115.229 84.0888 115.034 83.9125C114.899 83.7963 114.176 83.2863 113.452 82.7613C112.501 82.0775 111.6 81.3268 110.756 80.515L109.409 79.1875L108.686 79.5588L107.924 79.9675C107.988 80.2726 108.093 80.5677 108.236 80.845C108.449 81.3137 108.881 82.465 109.192 83.4025C110.013 85.8438 110.658 87.0175 112.278 89.1438L112.882 89.9463L114.033 90.1225C114.678 90.22 115.323 90.3588 115.499 90.415C115.773 90.5313 115.811 90.475 115.889 89.8488C115.927 89.575 115.987 89.2825 116.066 89.0088L116.069 89.0125ZM140.816 64.7163C141.813 64.6188 141.989 64.48 141.558 64.0338C141.284 63.76 140.658 63.7413 140.152 63.9738C139.818 64.1313 139.743 64.09 139.214 63.5238C138.667 62.92 138.629 62.8975 137.943 62.9763C137.317 63.055 137.219 63.0363 137.141 62.7813C136.897 62.3624 136.594 61.9809 136.241 61.6488C135.797 61.1447 135.242 60.7506 134.621 60.4975C133.409 60.0288 132.727 60.0888 131.572 60.7338C128.231 62.5488 128.369 62.53 125.144 61.7088C122.137 60.9475 119.891 60.1675 119.167 59.6763C118.563 59.2675 117.273 58.8175 116.197 58.6788C115.394 58.5625 114.888 58.7388 114.127 59.3613L113.718 59.695L114.089 60.34C114.596 61.24 114.539 61.2963 113.778 60.6325C112.957 59.95 111.982 59.4813 111.356 59.4588C110.906 59.4588 109.578 60.0438 109.421 60.2988C109.361 60.3775 109.773 60.475 110.321 60.5125C110.887 60.5725 111.667 60.7675 112.196 60.9813C113.564 61.5663 114.266 61.7613 115.514 61.8813C116.883 62.0163 119.362 61.8625 119.654 61.6263C119.812 61.4913 120.239 61.4688 121.139 61.5475C122.332 61.6263 122.819 61.7425 125.651 62.5038C127.293 62.9538 128.444 62.9125 130.398 62.3875C131.298 62.1325 132.431 61.8813 132.899 61.8213C133.702 61.7425 133.856 61.7838 135.108 62.35C137.099 63.25 138.157 63.8163 138.742 64.3413C139.327 64.8475 139.406 64.8475 140.812 64.7313L140.816 64.7163ZM129.682 61.3L130.874 60.6738L130.837 59.4625C130.818 58.6225 130.777 57.8013 130.739 56.9838L130.642 55.735L129.449 56.6538C128.744 57.2013 128.062 57.61 127.769 57.67C126.911 57.8275 122.673 57.67 122.279 57.4563C121.755 57.0688 121.264 56.6372 120.813 56.1663L119.718 55.0525L119.699 55.7163C119.699 56.0688 119.662 56.6725 119.583 57.0438C119.486 57.7488 119.486 57.7675 120.247 58.7238C120.656 59.2525 120.989 59.7213 120.989 59.7775C120.989 60.1488 126.633 61.9075 127.904 61.9263C128.313 61.9263 128.823 61.75 129.682 61.3V61.3ZM127.417 56.8638C128.823 56.59 129.506 55.5738 130.034 52.9975C130.582 50.2225 130.856 45.8688 130.601 44.0125C130.364 42.3325 128.489 41.59 124.916 41.7063C122.688 41.785 121.769 41.9988 121.008 42.6438C120.539 43.0338 120.539 43.075 120.326 44.9275C119.936 48.4825 120.521 53.5413 121.537 55.435C122.024 56.3538 122.456 56.6838 123.352 56.8413C124.368 57.0175 126.536 57.0175 127.413 56.86L127.417 56.8638Z" fill="black"/>
</svg>
