<svg width="200" height="200" viewBox="0 0 200 200" fill="none" xmlns="http://www.w3.org/2000/svg">
<path d="M62.4262 141.504L54 47H146.587L138.15 141.489L100.237 152L62.4262 141.504Z" fill="#E44F26"/>
<path d="M100.294 143.967L130.931 135.474L138.139 54.7285H100.294V143.967Z" fill="#F1662A"/>
<path d="M100.294 89.7764H84.9562L83.8987 77.9077H100.294V66.3164H71.2312L71.5087 69.4289L74.355 101.368H100.294V89.7764V89.7764ZM100.294 119.878L100.241 119.893L87.3337 116.409L86.5087 107.165H74.8725L76.4962 125.36L100.241 131.953L100.294 131.938V119.878Z" fill="#EBEBEB"/>
<path d="M100.252 89.7764V101.368H114.525L113.182 116.401L100.252 119.889V131.949L124.016 125.36L124.189 123.403L126.911 92.8889L127.196 89.7764H100.252V89.7764ZM100.252 66.3164V77.9077H128.25L128.482 75.3052L129.011 69.4289L129.289 66.3164H100.252V66.3164Z" fill="white"/>
</svg>
