<svg width="200" height="200" viewBox="0 0 200 200" fill="none" xmlns="http://www.w3.org/2000/svg">
<path d="M47 47H152V152H47V47Z" fill="#F5DE19"/>
<path d="M117.534 129.031C118.428 130.848 119.818 132.376 121.543 133.437C123.268 134.499 125.258 135.051 127.284 135.031C131.371 135.031 133.985 132.987 133.985 130.156C133.985 126.781 131.3 125.574 126.8 123.605L124.333 122.547C117.208 119.514 112.483 115.715 112.483 107.682C112.483 100.284 118.108 94.6473 126.931 94.6473C129.788 94.441 132.642 95.0803 135.137 96.4854C137.632 97.8905 139.659 99.9992 140.964 102.549L133.25 107.48C132.748 106.216 131.873 105.134 130.742 104.379C129.61 103.623 128.276 103.23 126.916 103.25C126.323 103.19 125.724 103.255 125.157 103.44C124.59 103.625 124.068 103.926 123.623 104.324C123.179 104.722 122.823 105.208 122.577 105.752C122.331 106.295 122.201 106.883 122.195 107.48C122.195 110.439 124.029 111.639 128.263 113.48L130.73 114.537C139.115 118.134 143.855 121.797 143.855 130.036C143.855 138.92 136.876 143.787 127.505 143.787C123.854 144.02 120.213 143.191 117.022 141.4C113.832 139.61 111.227 136.934 109.524 133.696L117.534 129.031ZM82.6775 129.886C84.2263 132.635 85.6363 134.96 89.0263 134.96C92.2663 134.96 94.3138 133.692 94.3138 128.761V95.2098H104.18V128.892C104.18 139.107 98.18 143.757 89.4463 143.757C86.3591 143.926 83.2931 143.157 80.6513 141.55C78.0096 139.944 75.9157 137.576 74.645 134.757L82.6775 129.886Z" fill="black"/>
</svg>
