<svg width="200" height="200" viewBox="0 0 200 200" fill="none" xmlns="http://www.w3.org/2000/svg">
<path d="M136.901 82.7027C135.698 82.2886 134.486 81.905 133.264 81.5522C133.469 80.7106 133.658 79.8791 133.826 79.0622C136.579 65.6483 134.779 54.8417 128.631 51.2837C122.737 47.8727 113.097 51.4294 103.361 59.9334C102.402 60.773 101.463 61.6368 100.547 62.5239C99.9342 61.934 99.3101 61.3555 98.6756 60.7888C88.472 51.6961 78.2445 47.8639 72.1033 51.4321C66.2141 54.8537 64.4703 65.0126 66.949 77.7253C67.1956 78.9844 67.4741 80.2369 67.7841 81.4818C66.3364 81.8947 64.9395 82.3341 63.6026 82.8019C51.6397 86.9881 44 93.5482 44 100.353C44 107.381 52.2015 114.43 64.6614 118.704C65.6715 119.049 66.6901 119.369 67.7161 119.663C67.3829 121.004 67.0871 122.354 66.829 123.711C64.4659 136.203 66.3112 146.122 72.1845 149.522C78.2507 153.033 88.4322 149.425 98.3458 140.727C99.1497 140.02 99.9359 139.292 100.704 138.546C101.696 139.507 102.714 140.439 103.758 141.343C113.361 149.636 122.845 152.985 128.713 149.576C134.773 146.055 136.743 135.399 134.186 122.436C133.984 121.42 133.759 120.409 133.508 119.405C134.223 119.192 134.925 118.973 135.609 118.745C148.563 114.438 156.991 107.475 156.991 100.353C156.991 93.5234 149.104 86.919 136.901 82.7027V82.7027ZM134.091 114.147C133.474 114.352 132.84 114.55 132.194 114.743C130.764 110.199 128.834 105.368 126.472 100.376C128.726 95.5035 130.581 90.7339 131.971 86.2199C133.127 86.5557 134.249 86.9097 135.33 87.2831C145.786 90.8961 152.164 96.2371 152.164 100.353C152.164 104.737 145.276 110.428 134.091 114.147V114.147ZM129.451 123.376C130.582 129.109 130.743 134.292 129.994 138.343C129.321 141.984 127.968 144.411 126.294 145.384C122.734 147.453 115.119 144.764 106.906 137.671C105.935 136.83 104.988 135.963 104.065 135.07C107.249 131.576 110.431 127.513 113.536 123.001C118.999 122.514 124.159 121.719 128.839 120.633C129.065 121.543 129.269 122.457 129.451 123.376V123.376ZM82.521 145.026C79.0421 146.259 76.2712 146.295 74.5962 145.325C71.0321 143.262 69.5504 135.298 71.5715 124.615C71.8117 123.353 72.0868 122.097 72.3964 120.85C77.0246 121.878 82.1476 122.617 87.6228 123.062C90.7494 127.478 94.0231 131.536 97.3223 135.089C96.6212 135.77 95.9034 136.434 95.1698 137.079C90.7856 140.925 86.3927 143.654 82.521 145.026V145.026ZM66.223 114.12C60.7133 112.23 56.1633 109.774 53.0445 107.093C50.2419 104.685 48.8273 102.293 48.8273 100.353C48.8273 96.2234 54.961 90.9563 65.1915 87.3766C66.4331 86.9424 67.7324 86.5327 69.0808 86.1482C70.495 90.7641 72.3496 95.5903 74.5878 100.471C72.3205 105.423 70.4394 110.327 69.0115 114.997C68.075 114.728 67.1452 114.435 66.223 114.12V114.12ZM71.6862 76.7946C69.5628 65.903 70.973 57.687 74.522 55.6249C78.3019 53.4286 86.6606 56.56 95.4708 64.4115C96.0453 64.9246 96.6105 65.4482 97.1661 65.9818C93.8832 69.5199 90.6395 73.548 87.5407 77.9371C82.2266 78.4314 77.1398 79.2252 72.463 80.2888C72.1749 79.131 71.9159 77.966 71.6862 76.795V76.7946ZM120.425 88.8738C119.321 86.9588 118.175 85.0679 116.989 83.2023C120.594 83.6599 124.049 84.2673 127.292 85.0097C126.319 88.1425 125.105 91.4175 123.676 94.7753C122.632 92.7866 121.548 90.8191 120.425 88.8738V88.8738ZM100.55 69.4442C102.776 71.8651 105.006 74.5677 107.199 77.5003C102.75 77.2894 98.2934 77.2885 93.8443 77.4976C96.0397 74.5921 98.2885 71.893 100.55 69.4442ZM80.5463 88.9071C79.4377 90.8366 78.3742 92.7919 77.3565 94.7713C75.9512 91.4254 74.7485 88.1354 73.7664 84.9583C76.9902 84.2345 80.428 83.6427 84.0102 83.1935C82.8111 85.0704 81.6562 86.9753 80.5463 88.9066V88.9071ZM84.113 117.857C80.4121 117.442 76.9226 116.881 73.6998 116.177C74.6973 112.943 75.9265 109.583 77.3623 106.165C78.3839 108.146 79.4519 110.103 80.5653 112.033C81.7102 114.018 82.8957 115.961 84.113 117.857ZM100.683 131.603C98.3948 129.125 96.113 126.385 93.8845 123.437C96.0481 123.522 98.2536 123.566 100.495 123.566C102.798 123.566 105.075 123.514 107.316 123.414C105.116 126.414 102.894 129.159 100.683 131.603ZM123.722 105.991C125.232 109.446 126.505 112.788 127.516 115.967C124.24 116.717 120.703 117.321 116.976 117.77C118.17 115.87 119.326 113.946 120.444 112C121.581 110.021 122.674 108.018 123.722 105.991V105.991ZM116.263 109.579C114.552 112.563 112.744 115.491 110.843 118.357C107.399 118.602 103.948 118.723 100.495 118.722C96.9789 118.722 93.5588 118.612 90.2653 118.397C88.3145 115.538 86.4722 112.605 84.7424 109.606H84.7428C83.0211 106.622 81.413 103.574 79.9218 100.468C81.4092 97.3618 83.0125 94.3124 84.7283 91.3266L84.7278 91.3271C86.443 88.3406 88.2705 85.4206 90.2066 82.5733C93.5667 82.3181 97.0125 82.1853 100.495 82.1853H100.495C103.994 82.1853 107.444 82.3195 110.803 82.5764C112.72 85.4194 114.535 88.3294 116.247 91.3009C117.969 94.2801 119.593 97.3146 121.118 100.4C119.609 103.517 117.99 106.578 116.263 109.579V109.579ZM126.221 55.4805C130.004 57.6706 131.475 66.5023 129.098 78.0841C128.946 78.823 128.776 79.5756 128.591 80.3389C123.902 79.2527 118.812 78.4452 113.483 77.9433C110.378 73.5059 107.161 69.4717 103.931 65.9792C104.778 65.1603 105.644 64.3627 106.53 63.5871C114.872 56.3013 122.668 53.4246 126.221 55.4805V55.4805ZM100.495 90.2263C106.068 90.2263 110.585 94.7602 110.585 100.353C110.585 105.946 106.068 110.479 100.495 110.479C94.923 110.479 90.4056 105.946 90.4056 100.353C90.4056 94.7602 94.923 90.2263 100.495 90.2263V90.2263Z" fill="#00D8FF"/>
</svg>
