<svg width="200" height="200" viewBox="0 0 200 200" fill="none" xmlns="http://www.w3.org/2000/svg">
<path d="M120.697 119.563C124.569 119.162 127.506 115.824 127.373 111.818C127.239 107.813 123.901 104.609 119.896 104.609H119.629C115.49 104.742 112.286 108.214 112.419 112.352C112.553 114.355 113.354 116.091 114.555 117.293C110.016 126.239 103.073 132.781 92.6594 138.255C85.5832 141.993 78.2402 143.329 70.8971 142.394C64.8889 141.593 60.216 138.923 57.2783 134.516C53.0061 127.974 52.6057 120.898 56.2107 113.821C58.7475 108.748 62.7525 105.009 65.2893 103.14C64.7553 101.404 63.9541 98.4668 63.5537 96.3307C44.1943 110.35 46.1971 129.309 52.0717 138.255C56.4775 144.931 65.4229 149.07 75.3029 149.07C77.9729 149.07 80.643 148.803 83.3135 148.136C100.403 144.798 113.354 134.65 120.697 119.563V119.563ZM144.195 103.007C134.048 91.1234 119.095 84.5811 102.005 84.5811H99.8693C98.6676 82.1779 96.1307 80.5754 93.327 80.5754H93.0598C88.9213 80.709 85.7172 84.1803 85.8504 88.3197C85.984 92.325 89.3217 95.5295 93.327 95.5295H93.5938C96.5311 95.3959 99.068 93.5266 100.136 90.9898H102.539C112.686 90.9898 122.299 93.927 130.978 99.6684C137.653 104.075 142.46 109.816 145.13 116.759C147.4 122.366 147.266 127.841 144.863 132.514C141.125 139.59 134.85 143.462 126.572 143.462C121.231 143.462 116.158 141.86 113.487 140.658C112.019 141.993 109.348 144.13 107.479 145.465C113.22 148.135 119.095 149.604 124.702 149.604C137.52 149.604 146.999 142.527 150.604 135.451C154.476 127.707 154.209 114.355 144.195 103.007V103.007ZM76.3709 121.832C76.5045 125.838 79.8422 129.042 83.8475 129.042H84.1147C88.2537 128.909 91.4578 125.437 91.3242 121.298C91.191 117.292 87.8529 114.088 83.8475 114.088H83.5807C83.3135 114.088 82.9127 114.088 82.6463 114.221C77.1721 105.142 74.9025 95.2623 75.7037 84.5807C76.2373 76.5697 78.9078 69.6266 83.5807 63.8852C87.4525 58.9451 94.9291 56.5418 100.003 56.4086C114.155 56.1414 120.163 73.7656 120.564 80.8422C122.299 81.2426 125.236 82.1775 127.239 82.8451C125.637 61.2156 112.286 50 99.4688 50C87.4525 50 76.3709 58.6787 71.9647 71.4963C65.8234 88.5865 69.8287 105.009 77.3053 117.96C76.6381 118.895 76.2373 120.364 76.3709 121.832V121.832Z" fill="#764ABC"/>
</svg>
