<svg width="200" height="200" viewBox="0 0 200 200" fill="none" xmlns="http://www.w3.org/2000/svg">
<path d="M142.463 106.871C138.393 106.892 134.855 107.864 131.893 109.301C130.806 107.166 129.719 105.265 129.528 103.87C129.314 102.244 129.059 101.25 129.314 99.3064C129.57 97.3625 130.721 94.5944 130.7 94.3832C130.679 94.1721 130.444 93.1788 128.1 93.158C125.756 93.1367 123.731 93.6016 123.497 94.2142C123.262 94.8268 122.815 96.2215 122.516 97.658C122.111 99.7713 117.828 107.314 115.378 111.265C114.589 109.723 113.907 108.371 113.758 107.293C113.545 105.666 113.289 104.673 113.545 102.729C113.801 100.785 114.951 98.0177 114.93 97.8061C114.909 97.595 114.674 96.6017 112.33 96.5809C109.986 96.5596 107.961 97.0245 107.727 97.6371C107.493 98.2502 107.237 99.6866 106.747 101.081C106.256 102.476 100.567 115.069 99.075 118.323C98.4722 119.64 97.8399 120.943 97.1784 122.232C97.1784 122.232 97.157 122.295 97.093 122.401C96.8852 122.805 96.6722 123.206 96.4541 123.605V123.626C96.1342 124.197 95.7932 124.725 95.6228 124.725C95.4948 124.725 95.2604 123.204 95.6653 121.133C96.5176 116.759 98.5422 109.956 98.5211 109.723C98.5211 109.596 98.9046 108.413 97.1999 107.8C95.5373 107.188 94.9409 108.202 94.7915 108.202C94.6425 108.202 94.5356 108.561 94.5356 108.561C94.5356 108.561 96.3901 100.912 90.9983 100.912C87.6315 100.912 82.9856 104.568 80.6841 107.864C78.0678 109.275 75.4537 110.691 72.8418 112.111C71.5851 112.808 70.2849 113.506 69.0701 114.16C68.9847 114.076 68.8997 113.97 68.8142 113.886C62.2932 106.976 50.2318 102.095 50.7432 92.8199C50.9351 89.4392 52.1069 80.5647 73.9076 69.789C91.8506 61.0201 106.129 63.4497 108.601 68.8378C112.138 76.5292 100.951 90.8126 82.4102 92.8829C75.3353 93.665 71.6271 90.9603 70.6898 89.9462C69.7095 88.8895 69.5601 88.8261 69.1976 89.0377C68.6012 89.3549 68.9847 90.3055 69.1976 90.8547C69.752 92.2911 72.032 94.8268 75.8892 96.0738C79.2989 97.1722 87.5886 97.7853 97.6258 93.9396C108.856 89.629 117.636 77.6489 115.058 67.6126C112.479 57.4282 95.4308 54.0687 79.2989 59.7522C69.7095 63.1335 59.3098 68.4577 51.83 75.3882C42.9434 83.6283 41.5368 90.7913 42.1121 93.7919C44.1796 104.441 58.9904 111.371 64.9146 116.506C64.6161 116.675 64.3387 116.823 64.1047 116.95C61.1424 118.407 49.8479 124.26 47.035 130.451C43.8387 137.466 47.5469 142.495 49.9974 143.171C57.6052 145.263 65.426 141.502 69.624 135.29C73.8221 129.078 73.3107 121.006 71.3716 117.309C71.3502 117.266 71.3291 117.224 71.2862 117.182C72.0535 116.738 72.8418 116.273 73.6091 115.83C75.0194 115.003 76.4476 114.207 77.8927 113.442C77.1679 115.407 76.635 117.752 76.3795 121.133C76.0596 125.106 77.7003 130.261 79.8528 132.289C80.8121 133.177 81.9413 133.198 82.6661 133.198C85.1806 133.198 86.3103 131.127 87.5676 128.676C89.1017 125.676 90.4869 122.19 90.4869 122.19C90.4869 122.19 88.7608 131.613 93.4492 131.613C95.1539 131.613 96.88 129.416 97.6473 128.296V128.317C97.6473 128.317 97.6898 128.253 97.7753 128.106C97.9458 127.831 98.0522 127.662 98.0522 127.662V127.62C98.7341 126.436 100.269 123.753 102.549 119.295C105.49 113.548 108.324 106.364 108.324 106.364C108.324 106.364 108.58 108.117 109.453 111.033C109.965 112.745 111.03 114.625 111.883 116.442C111.201 117.393 110.774 117.921 110.774 117.921L110.796 117.943C110.242 118.661 109.645 119.442 108.984 120.204C106.661 122.95 103.891 126.099 103.508 127.007C103.06 128.084 103.167 128.866 104.019 129.5C104.637 129.965 105.745 130.028 106.875 129.965C108.963 129.817 110.434 129.31 111.158 128.993C112.288 128.592 113.609 127.979 114.845 127.07C117.125 125.401 118.51 123.013 118.382 119.866C118.318 118.133 117.743 116.4 117.04 114.773C117.253 114.478 117.444 114.182 117.658 113.886C121.259 108.667 124.051 102.94 124.051 102.94C124.051 102.94 124.307 104.694 125.18 107.61C125.607 109.089 126.48 110.695 127.247 112.259C123.859 114.985 121.771 118.154 121.025 120.224C119.682 124.07 120.726 125.802 122.708 126.204C123.603 126.394 124.882 125.971 125.82 125.57C127.013 125.19 128.42 124.535 129.762 123.563C132.043 121.894 134.237 119.569 134.109 116.421C134.045 114.985 133.662 113.569 133.129 112.195C136.006 111.012 139.714 110.357 144.445 110.906C154.589 112.09 156.592 118.365 156.208 121.007C155.824 123.647 153.693 125.084 152.991 125.528C152.287 125.972 152.053 126.12 152.117 126.436C152.202 126.901 152.543 126.88 153.14 126.796C153.971 126.648 158.467 124.661 158.659 119.802C158.979 113.59 153.012 106.807 142.463 106.871V106.871ZM64.2112 133.029C60.844 136.663 56.156 138.036 54.1314 136.875C51.9579 135.628 52.8102 130.261 56.9443 126.416C59.4588 124.07 62.6981 121.893 64.8506 120.563C65.3405 120.267 66.0653 119.844 66.9391 119.316C67.0881 119.231 67.1736 119.189 67.1736 119.189L67.6849 118.872C69.1976 124.366 67.7489 129.205 64.2112 133.029V133.029ZM88.7183 116.506C87.5461 119.337 85.0956 126.585 83.6039 126.183C82.3252 125.845 81.5364 120.351 83.348 114.921C84.2643 112.195 86.2034 108.941 87.3331 107.674C89.1657 105.645 91.1903 104.969 91.6802 105.793C92.2985 106.871 89.4427 114.731 88.7183 116.506V116.506ZM108.942 126.098C108.451 126.352 107.983 126.521 107.77 126.394C107.621 126.309 107.983 125.971 107.983 125.971C107.983 125.971 110.519 123.267 111.52 122.042C112.096 121.323 112.778 120.478 113.502 119.527V119.802C113.502 123.035 110.348 125.211 108.941 126.098H108.942ZM124.541 122.57C124.178 122.316 124.242 121.471 125.457 118.83C125.926 117.794 127.034 116.062 128.931 114.393C129.144 115.069 129.293 115.724 129.272 116.337C129.25 120.415 126.31 121.936 124.541 122.57Z" fill="#CD6799"/>
</svg>
