<svg width="200" height="200" viewBox="0 0 200 200" fill="none" xmlns="http://www.w3.org/2000/svg">
<path d="M71.6562 88.925C75.4771 73.6417 85.0292 66 100.312 66C123.237 66 126.103 83.1937 137.566 86.0594C145.207 87.9698 151.894 85.1042 157.625 77.4625C153.804 92.7458 144.252 100.387 128.969 100.387C106.044 100.387 103.178 83.1937 91.7156 80.3281C84.074 78.4177 77.3875 81.2833 71.6562 88.925ZM43 123.312C46.8208 108.029 56.3729 100.387 71.6562 100.387C94.5812 100.387 97.4469 117.581 108.909 120.447C116.551 122.357 123.238 119.492 128.969 111.85C125.148 127.133 115.596 134.775 100.312 134.775C77.3875 134.775 74.5219 117.581 63.0594 114.716C55.4177 112.805 48.7312 115.671 43 123.312Z" fill="#44A8B3"/>
</svg>
