<svg width="200" height="200" viewBox="0 0 200 200" fill="none" xmlns="http://www.w3.org/2000/svg">
<path d="M145.544 61.322L125.363 51.606C124.223 51.0565 122.941 50.8752 121.693 51.0872C120.446 51.2991 119.295 51.8939 118.401 52.789L52.3386 113.017C51.5371 113.744 51.0573 114.76 51.0048 115.841C50.9523 116.922 51.3314 117.98 52.0586 118.782C52.1461 118.876 52.2336 118.967 52.3281 119.051L57.7216 123.951C58.4264 124.592 59.3336 124.967 60.2856 125.009C61.2376 125.051 62.1744 124.759 62.9331 124.182L142.506 63.842C143.107 63.386 143.823 63.1067 144.574 63.0357C145.325 62.9647 146.081 63.1048 146.757 63.4401C147.433 63.7755 148.002 64.2929 148.4 64.934C148.797 65.5751 149.008 66.3145 149.009 67.069V66.8345C149.009 65.6827 148.683 64.5543 148.07 63.5791C147.457 62.6039 146.582 61.8215 145.544 61.322V61.322Z" fill="#0065A9"/>
<path d="M145.544 138.112L125.363 147.832C124.223 148.38 122.941 148.56 121.694 148.348C120.447 148.136 119.296 147.543 118.401 146.649L52.3386 86.4173C51.5371 85.69 51.0573 84.6741 51.0048 83.593C50.9523 82.512 51.3314 81.4544 52.0586 80.6528C52.1461 80.5583 52.2336 80.4673 52.3281 80.3833L57.7216 75.4833C58.4271 74.8392 59.3364 74.4632 60.2908 74.421C61.2451 74.3788 62.184 74.673 62.9436 75.2523L142.506 135.592C143.107 136.048 143.823 136.328 144.574 136.399C145.325 136.47 146.081 136.33 146.757 135.994C147.433 135.659 148.002 135.141 148.4 134.5C148.797 133.859 149.008 133.12 149.009 132.365V132.617C149.005 133.766 148.678 134.891 148.065 135.862C147.452 136.834 146.579 137.614 145.544 138.112V138.112Z" fill="#007ACC"/>
<path d="M125.362 147.831C124.222 148.379 122.94 148.56 121.693 148.348C120.446 148.136 119.296 147.542 118.401 146.648C118.904 147.145 119.541 147.481 120.235 147.616C120.928 147.751 121.645 147.679 122.297 147.408C122.95 147.137 123.507 146.68 123.901 146.093C124.294 145.507 124.505 144.817 124.508 144.111V55.323C124.509 54.6135 124.299 53.9198 123.905 53.3297C123.511 52.7397 122.951 52.2799 122.295 52.0085C121.64 51.7371 120.918 51.6664 120.223 51.8054C119.527 51.9443 118.888 52.2866 118.387 52.789C119.281 51.8941 120.432 51.2993 121.679 51.0868C122.926 50.8742 124.208 51.0544 125.348 51.6025L145.526 61.3045C146.567 61.8015 147.447 62.5827 148.063 63.5581C148.679 64.5335 149.007 65.6632 149.008 66.817V132.617C149.009 133.77 148.683 134.899 148.07 135.875C147.456 136.851 146.579 137.634 145.54 138.133L125.362 147.831Z" fill="#1F9CF0"/>
</svg>
